<?xml version="1.0" encoding="utf-8"?>
<!-- Generator: Adobe Illustrator 24.0.3, SVG Export Plug-In . SVG Version: 6.00 Build 0)  -->
<svg version="1.1" id="Layer_1" xmlns="http://www.w3.org/2000/svg" xmlns:xlink="http://www.w3.org/1999/xlink" x="0px" y="0px"
	 viewBox="0 0 73 50" style="enable-background:new 0 0 73 50;" xml:space="preserve">
<style type="text/css">
	.st0{fill-opacity:0;}
	.st1{fill:#2E2E2E;}
</style>
<rect y="0" class="st0" width="73" height="50"/>
<g>
	<path class="st1" d="M3.7,32.4V21.3H0.9v-1.4h8.3v1.4H6.4v11.1H3.7z"/>
	<path class="st1" d="M12,32.4V19.9h2.8v12.5H12z"/>
	<path class="st1" d="M18.9,32.4V19.9h6.9v1.4h-4.2v4.2h2.8v1.4h-2.8v5.5H18.9z"/>
	<path class="st1" d="M28.6,32.4V19.9h6.9v1.4h-4.2v4.2h2.8v1.4h-2.8v5.5H28.6z"/>
	<path class="st1" d="M38.3,32.4v-9.7c0-0.8,0.3-1.4,0.8-2c0.5-0.5,1.2-0.8,2-0.8h2.8c0.8,0,1.4,0.3,1.9,0.8c0.5,0.5,0.8,1.2,0.8,2
		v9.7h-2.8v-5.5h-2.8v5.5H38.3z M41.1,25.5h2.8v-2.8c0-0.4-0.1-0.7-0.4-1c-0.3-0.3-0.6-0.4-1-0.4c-0.4,0-0.7,0.1-1,0.4
		c-0.3,0.3-0.4,0.6-0.4,1V25.5z"/>
	<path class="st1" d="M49.4,32.4V19.9h0.6l7.7,6.9v-6.9h1.4v12.5h-0.6l-7.7-6.9v6.9H49.4z"/>
	<path class="st1" d="M64.7,32.4v-5.5c-1.9-0.2-2.8-1.1-2.8-2.8v-4.2h2.8v4.2c0,0.4,0.1,0.7,0.4,1c0.3,0.3,0.6,0.4,1,0.4
		c0.4,0,0.7-0.1,1-0.4c0.3-0.3,0.4-0.6,0.4-1v-4.2h2.8v4.2c0,1.6-0.9,2.6-2.8,2.8v5.5H64.7z"/>
</g>
</svg>
